<?xml version="1.0" encoding="UTF-8"?>
<svg xmlns="http://www.w3.org/2000/svg" xmlns:xlink="http://www.w3.org/1999/xlink" width="2001" height="2001" viewBox="0 0 2001 2001">
<path fill-rule="evenodd" fill="rgb(37.255859%, 55.664062%, 63.476562%)" fill-opacity="1" d="M 398.035156 573.089844 L 1601.960938 573.089844 L 1455.628906 1771.871094 C 1448.550781 1829.910156 1395.261719 1877.398438 1337.230469 1877.398438 L 662.773438 1877.398438 C 604.734375 1877.398438 551.453125 1829.910156 544.367188 1771.871094 L 398.035156 573.089844 "/>
<path fill-rule="nonzero" fill="rgb(0%, 0%, 0%)" fill-opacity="1" d="M 398.035156 546.171875 L 1632.359375 546.171875 L 1628.679688 576.351562 L 1482.339844 1775.132812 C 1477.980469 1810.851562 1459.570312 1843.175781 1433.421875 1866.488281 C 1407.21875 1889.832031 1373.050781 1904.320312 1337.230469 1904.320312 L 662.773438 1904.320312 C 626.949219 1904.320312 592.777344 1889.832031 566.585938 1866.488281 C 540.429688 1843.175781 522.015625 1810.851562 517.65625 1775.132812 L 371.324219 576.351562 L 367.640625 546.171875 Z M 892.824219 600.011719 L 428.433594 600.011719 L 571.078125 1768.613281 C 573.804688 1790.933594 585.574219 1811.371094 602.339844 1826.316406 C 619.070312 1841.222656 640.5625 1850.476562 662.773438 1850.476562 L 1337.230469 1850.476562 C 1359.441406 1850.476562 1380.929688 1841.222656 1397.660156 1826.316406 C 1414.429688 1811.371094 1426.199219 1790.933594 1428.921875 1768.613281 L 1571.570312 600.011719 L 892.824219 600.011719 "/>
<path fill-rule="evenodd" fill="rgb(22.75238%, 30.200195%, 36.083984%)" fill-opacity="1" d="M 335.179688 276.550781 L 1664.820312 276.550781 C 1713.570312 276.550781 1753.460938 316.441406 1753.460938 365.199219 C 1753.460938 413.949219 1713.570312 453.839844 1664.820312 453.839844 L 335.179688 453.839844 C 286.429688 453.839844 246.539062 413.949219 246.539062 365.199219 C 246.539062 316.441406 286.429688 276.550781 335.179688 276.550781 "/>
<path fill-rule="nonzero" fill="rgb(0%, 0%, 0%)" fill-opacity="1" d="M 335.179688 249.628906 L 1664.820312 249.628906 C 1696.628906 249.628906 1725.519531 262.628906 1746.460938 283.558594 C 1767.390625 304.488281 1780.378906 333.390625 1780.378906 365.199219 C 1780.378906 397.011719 1767.390625 425.898438 1746.460938 446.828125 C 1725.519531 467.769531 1696.628906 480.761719 1664.820312 480.761719 L 335.179688 480.761719 C 303.371094 480.761719 274.476562 467.769531 253.542969 446.828125 C 232.609375 425.898438 219.617188 397.011719 219.617188 365.199219 C 219.617188 333.390625 232.609375 304.488281 253.542969 283.558594 C 274.476562 262.628906 303.371094 249.628906 335.179688 249.628906 Z M 1664.820312 303.480469 L 335.179688 303.480469 C 318.234375 303.480469 302.8125 310.429688 291.613281 321.628906 C 280.414062 332.828125 273.460938 348.25 273.460938 365.199219 C 273.460938 382.140625 280.414062 397.570312 291.613281 408.769531 C 302.8125 419.96875 318.234375 426.921875 335.179688 426.921875 L 1664.820312 426.921875 C 1681.761719 426.921875 1697.191406 419.96875 1708.390625 408.769531 C 1719.589844 397.570312 1726.539062 382.140625 1726.539062 365.199219 C 1726.539062 348.25 1719.589844 332.828125 1708.390625 321.628906 C 1697.191406 310.429688 1681.761719 303.480469 1664.820312 303.480469 "/>
<path fill-rule="evenodd" fill="rgb(22.75238%, 30.200195%, 36.083984%)" fill-opacity="1" d="M 883.921875 124.601562 L 1116.078125 124.601562 C 1174.121094 124.601562 1221.609375 172.089844 1221.609375 230.128906 L 1221.609375 276.550781 L 778.394531 276.550781 L 778.394531 230.128906 C 778.394531 172.089844 825.882812 124.601562 883.921875 124.601562 "/>
<path fill-rule="nonzero" fill="rgb(0%, 0%, 0%)" fill-opacity="1" d="M 883.921875 97.679688 L 1116.078125 97.679688 C 1152.53125 97.679688 1185.648438 112.570312 1209.640625 136.558594 C 1233.640625 160.558594 1248.53125 193.679688 1248.53125 230.128906 L 1248.53125 303.480469 L 751.472656 303.480469 L 751.472656 230.128906 C 751.472656 193.679688 766.363281 160.558594 790.359375 136.558594 C 814.351562 112.570312 847.46875 97.679688 883.921875 97.679688 Z M 1116.078125 151.519531 L 883.921875 151.519531 C 862.332031 151.519531 842.6875 160.371094 828.429688 174.628906 C 814.167969 188.890625 805.316406 208.539062 805.316406 230.128906 L 805.316406 249.628906 L 1194.679688 249.628906 L 1194.679688 230.128906 C 1194.679688 208.539062 1185.828125 188.890625 1171.570312 174.628906 C 1157.308594 160.371094 1137.671875 151.519531 1116.078125 151.519531 "/>
<path fill-rule="evenodd" fill="rgb(0%, 0%, 0%)" fill-opacity="1" d="M 577.363281 671.230469 L 1422.640625 671.230469 C 1438.308594 671.230469 1451.128906 684.050781 1451.128906 699.71875 C 1451.128906 715.390625 1438.308594 728.210938 1422.640625 728.210938 L 577.363281 728.210938 C 561.695312 728.210938 548.871094 715.390625 548.871094 699.71875 C 548.871094 684.050781 561.695312 671.230469 577.363281 671.230469 "/>
<path fill="none" stroke-width="5.6693" stroke-linecap="butt" stroke-linejoin="miter" stroke="rgb(0%, 0%, 0%)" stroke-opacity="1" stroke-miterlimit="22.9256" d="M 5773.632812 13297.695312 L 14226.40625 13297.695312 C 14383.085938 13297.695312 14511.289062 13169.492188 14511.289062 13012.8125 C 14511.289062 12856.09375 14383.085938 12727.890625 14226.40625 12727.890625 L 5773.632812 12727.890625 C 5616.953125 12727.890625 5488.710938 12856.09375 5488.710938 13012.8125 C 5488.710938 13169.492188 5616.953125 13297.695312 5773.632812 13297.695312 Z M 5773.632812 13297.695312 " transform="matrix(0.1, 0, 0, -0.1, 0, 2001)"/>
<path fill-rule="evenodd" fill="rgb(22.75238%, 30.200195%, 36.083984%)" fill-opacity="1" d="M 952.21875 864.339844 L 1054.828125 864.339844 C 1082.328125 864.339844 1104.828125 886.839844 1104.828125 914.339844 L 1104.828125 1700.765625 C 1104.828125 1728.265625 1082.328125 1750.765625 1054.828125 1750.765625 L 952.21875 1750.765625 C 924.71875 1750.765625 902.21875 1728.265625 902.21875 1700.765625 L 902.21875 914.339844 C 902.21875 886.839844 924.71875 864.339844 952.21875 864.339844 "/>
<path fill-rule="nonzero" fill="rgb(0%, 0%, 0%)" fill-opacity="1" d="M 954.980469 837.421875 L 1052.070312 837.421875 C 1074.011719 837.421875 1093.941406 846.378906 1108.359375 860.808594 C 1122.789062 875.238281 1131.75 895.160156 1131.75 917.101562 L 1131.75 1698.003906 C 1131.75 1719.945312 1122.789062 1739.871094 1108.359375 1754.300781 C 1093.941406 1768.730469 1074.011719 1777.6875 1052.070312 1777.6875 L 954.980469 1777.6875 C 933.039062 1777.6875 913.113281 1768.730469 898.683594 1754.300781 C 884.253906 1739.871094 875.296875 1719.945312 875.296875 1698.003906 L 875.296875 917.101562 C 875.296875 895.160156 884.253906 875.238281 898.683594 860.808594 C 913.113281 846.378906 933.039062 837.421875 954.980469 837.421875 Z M 1052.070312 891.261719 L 954.980469 891.261719 C 947.902344 891.261719 941.449219 894.179688 936.753906 898.878906 C 932.054688 903.570312 929.140625 910.03125 929.140625 917.101562 L 929.140625 1698.003906 C 929.140625 1705.082031 932.054688 1711.535156 936.753906 1716.234375 C 941.449219 1720.929688 947.902344 1723.84375 954.980469 1723.84375 L 1052.070312 1723.84375 C 1059.140625 1723.84375 1065.601562 1720.929688 1070.300781 1716.234375 C 1074.988281 1711.535156 1077.910156 1705.082031 1077.910156 1698.003906 L 1077.910156 917.101562 C 1077.910156 910.03125 1074.988281 903.570312 1070.300781 898.878906 C 1065.601562 894.179688 1059.140625 891.261719 1052.070312 891.261719 "/>
<path fill-rule="evenodd" fill="rgb(22.75238%, 30.200195%, 36.083984%)" fill-opacity="1" d="M 606.949219 864.339844 L 704.035156 864.339844 C 727.976562 864.339844 750.015625 880.511719 758.699219 902.460938 L 758.699219 1718.3125 C 755.722656 1736.367188 745.316406 1747.488281 726.515625 1750.765625 L 699.605469 1750.765625 C 670.585938 1750.765625 644.359375 1727.023438 641.328125 1698.003906 L 559.699219 917.101562 C 556.667969 888.078125 577.929688 864.339844 606.949219 864.339844 "/>
<path fill-rule="nonzero" fill="rgb(0%, 0%, 0%)" fill-opacity="1" d="M 606.949219 837.421875 L 704.035156 837.421875 C 721.4375 837.421875 738.128906 843.210938 752.09375 852.941406 C 766.152344 862.75 777.414062 876.609375 783.726562 892.578125 L 785.621094 897.359375 L 785.621094 1720.074219 L 785.199219 1722.625 C 782.800781 1737.195312 777.066406 1749.304688 767.789062 1758.800781 C 758.40625 1768.394531 746.214844 1774.621094 731.035156 1777.269531 L 728.625 1777.6875 L 699.605469 1777.6875 C 678.296875 1777.6875 658.105469 1769.054688 642.738281 1755.144531 C 627.449219 1741.300781 616.84375 1722.050781 614.617188 1700.738281 L 532.988281 919.839844 C 532.65625 916.640625 532.492188 913.898438 532.492188 911.621094 C 532.492188 892.519531 539.5 875.148438 551.339844 861.941406 C 563.191406 848.730469 579.742188 839.898438 598.816406 837.910156 C 601.910156 837.589844 604.632812 837.421875 606.949219 837.421875 Z M 704.035156 891.261719 L 606.949219 891.261719 C 605.601562 891.261719 604.71875 891.289062 604.285156 891.328125 C 598.933594 891.890625 594.414062 894.230469 591.304688 897.699219 C 588.183594 901.179688 586.335938 906.03125 586.335938 911.621094 C 586.335938 912.941406 586.359375 913.871094 586.410156 914.371094 L 668.039062 1695.269531 C 668.84375 1702.976562 672.871094 1710.109375 678.703125 1715.390625 C 684.464844 1720.605469 691.898438 1723.84375 699.605469 1723.84375 L 724.023438 1723.84375 C 726.535156 1723.230469 728.285156 1722.398438 729.296875 1721.363281 C 730.371094 1720.261719 731.195312 1718.496094 731.777344 1716.09375 L 731.777344 908.359375 C 729.226562 903.800781 725.632812 899.859375 721.382812 896.898438 C 716.3125 893.359375 710.285156 891.261719 704.035156 891.261719 "/>
<path fill-rule="evenodd" fill="rgb(22.75238%, 30.200195%, 36.083984%)" fill-opacity="1" d="M 1393.050781 864.339844 L 1295.96875 864.339844 C 1272.019531 864.339844 1249.980469 880.511719 1241.300781 902.460938 L 1241.300781 1718.3125 C 1244.28125 1736.367188 1254.679688 1747.488281 1273.488281 1750.765625 L 1300.390625 1750.765625 C 1329.410156 1750.765625 1355.640625 1727.023438 1358.671875 1698.003906 L 1440.300781 917.101562 C 1443.328125 888.078125 1422.070312 864.339844 1393.050781 864.339844 "/>
<path fill-rule="nonzero" fill="rgb(0%, 0%, 0%)" fill-opacity="1" d="M 1393.050781 891.261719 L 1295.96875 891.261719 C 1289.71875 891.261719 1283.691406 893.359375 1278.621094 896.898438 C 1274.371094 899.859375 1270.769531 903.800781 1268.21875 908.359375 L 1268.21875 1716.09375 C 1268.800781 1718.496094 1269.628906 1720.261719 1270.699219 1721.363281 C 1271.71875 1722.398438 1273.460938 1723.230469 1275.980469 1723.84375 L 1300.390625 1723.84375 C 1308.101562 1723.84375 1315.53125 1720.605469 1321.289062 1715.390625 C 1327.128906 1710.109375 1331.160156 1702.976562 1331.960938 1695.269531 L 1413.589844 914.371094 C 1413.640625 913.871094 1413.671875 912.941406 1413.671875 911.621094 C 1413.671875 906.03125 1411.820312 901.179688 1408.699219 897.699219 C 1405.578125 894.230469 1401.070312 891.890625 1395.71875 891.328125 C 1395.28125 891.289062 1394.398438 891.261719 1393.050781 891.261719 Z M 1295.96875 837.421875 L 1393.050781 837.421875 C 1395.371094 837.421875 1398.089844 837.589844 1401.191406 837.910156 C 1420.261719 839.898438 1436.808594 848.730469 1448.660156 861.941406 C 1460.5 875.148438 1467.511719 892.519531 1467.511719 911.621094 C 1467.511719 913.898438 1467.351562 916.640625 1467.011719 919.839844 L 1385.378906 1700.738281 C 1383.160156 1722.050781 1372.550781 1741.300781 1357.261719 1755.144531 C 1341.898438 1769.054688 1321.699219 1777.6875 1300.390625 1777.6875 L 1271.378906 1777.6875 L 1268.960938 1777.269531 C 1253.789062 1774.621094 1241.589844 1768.394531 1232.210938 1758.800781 C 1222.929688 1749.304688 1217.199219 1737.195312 1214.800781 1722.625 L 1214.378906 1720.074219 L 1214.378906 897.359375 L 1216.269531 892.578125 C 1222.589844 876.609375 1233.851562 862.75 1247.910156 852.941406 C 1261.871094 843.210938 1278.558594 837.421875 1295.96875 837.421875 "/>
</svg>
